<?xml version="1.0" encoding="UTF-8"?>
<svg id="Capa_2" data-name="Capa 2" xmlns="http://www.w3.org/2000/svg" viewBox="0 0 457.95 55.17">
  <defs>
    <style>
      .cls-1 {
        fill: #fff;
      }
    </style>
  </defs>
  <g id="Capa_1-2" data-name="Capa 1">
    <g>
      <path class="cls-1" d="M122.86,45.94l-13.75-35h4.5l9.55,24.6c.3.83.57,1.59.82,2.27.25.68.48,1.3.68,1.85.2.55.38,1.06.55,1.52.17.47.32.92.45,1.35h-1.1c.17-.57.36-1.18.58-1.85s.47-1.42.78-2.27c.3-.85.65-1.81,1.05-2.88l9.1-24.6h4.65l-13.85,35h-4Z"/>
      <path class="cls-1" d="M143.01,45.94l13.5-35h4.25l13.45,35h-4.25l-8.55-22.5c-.1-.23-.28-.76-.55-1.58-.27-.82-.58-1.74-.95-2.78-.37-1.03-.72-2.02-1.05-2.97-.33-.95-.6-1.67-.8-2.17h.95c-.2.57-.45,1.3-.75,2.2s-.62,1.83-.98,2.8c-.35.97-.67,1.87-.97,2.7-.3.83-.53,1.5-.7,2l-8.5,22.3h-4.1ZM148.71,36.29l1.45-3.85h16.55l1.65,3.85h-19.65Z"/>
      <path class="cls-1" d="M180.46,45.94V10.94h3.6l22.15,30.25-.6.3c-.17-1.07-.3-2.31-.4-3.72-.1-1.42-.18-3.08-.23-4.97-.05-1.9-.08-4.07-.08-6.5v-15.35h3.95v35h-3.65l-22.1-29.85.6-.45c.17,1.8.29,3.38.38,4.75.08,1.37.16,2.54.22,3.53.07.98.1,1.83.1,2.55v19.48h-3.95Z"/>
      <path class="cls-1" d="M219.06,45.94V10.94h3.95v31.2h16.8v3.8h-20.75Z"/>
      <path class="cls-1" d="M262.46,46.44c-2.47,0-4.74-.45-6.83-1.35-2.08-.9-3.9-2.15-5.45-3.75-1.55-1.6-2.74-3.49-3.58-5.67s-1.25-4.58-1.25-7.18.42-5.04,1.25-7.22,2.03-4.08,3.58-5.7c1.55-1.62,3.37-2.88,5.45-3.77,2.08-.9,4.36-1.35,6.83-1.35s4.79.45,6.88,1.35c2.08.9,3.9,2.16,5.45,3.77,1.55,1.62,2.75,3.52,3.6,5.73.85,2.2,1.27,4.58,1.27,7.15s-.42,4.99-1.27,7.17c-.85,2.18-2.05,4.08-3.6,5.7-1.55,1.62-3.37,2.88-5.45,3.77-2.08.9-4.38,1.35-6.88,1.35ZM262.51,42.59c1.9,0,3.65-.35,5.25-1.05,1.6-.7,2.98-1.68,4.15-2.95,1.17-1.27,2.08-2.77,2.73-4.5.65-1.73.97-3.62.97-5.65s-.33-3.91-.97-5.62c-.65-1.72-1.56-3.22-2.73-4.5-1.17-1.28-2.55-2.27-4.15-2.98-1.6-.7-3.35-1.05-5.25-1.05s-3.7.35-5.3,1.05c-1.6.7-2.99,1.68-4.17,2.95-1.18,1.27-2.09,2.77-2.73,4.5-.63,1.73-.95,3.63-.95,5.7,0,2.7.57,5.12,1.7,7.25,1.13,2.13,2.68,3.81,4.65,5.03,1.97,1.22,4.23,1.82,6.8,1.82Z"/>
      <path class="cls-1" d="M301.81,46.44c-2.47,0-4.74-.45-6.83-1.35-2.08-.9-3.9-2.15-5.45-3.75-1.55-1.6-2.74-3.49-3.58-5.67s-1.25-4.58-1.25-7.18.42-5.04,1.25-7.22,2.03-4.08,3.58-5.7c1.55-1.62,3.37-2.88,5.45-3.77,2.08-.9,4.36-1.35,6.83-1.35s4.79.45,6.88,1.35c2.08.9,3.9,2.16,5.45,3.77,1.55,1.62,2.75,3.52,3.6,5.73.85,2.2,1.27,4.58,1.27,7.15s-.42,4.99-1.27,7.17c-.85,2.18-2.05,4.08-3.6,5.7-1.55,1.62-3.37,2.88-5.45,3.77-2.08.9-4.38,1.35-6.88,1.35ZM301.85,42.59c1.9,0,3.65-.35,5.25-1.05,1.6-.7,2.98-1.68,4.15-2.95,1.17-1.27,2.08-2.77,2.73-4.5.65-1.73.97-3.62.97-5.65s-.33-3.91-.97-5.62c-.65-1.72-1.56-3.22-2.73-4.5-1.17-1.28-2.55-2.27-4.15-2.98-1.6-.7-3.35-1.05-5.25-1.05s-3.7.35-5.3,1.05c-1.6.7-2.99,1.68-4.18,2.95-1.18,1.27-2.09,2.77-2.72,4.5-.63,1.73-.95,3.63-.95,5.7,0,2.7.57,5.12,1.7,7.25,1.13,2.13,2.68,3.81,4.65,5.03,1.97,1.22,4.23,1.82,6.8,1.82Z"/>
      <path class="cls-1" d="M326.6,45.94V10.94h3.95v35h-3.95ZM329.75,34.99l-.2-4.55,19.7-19.5h5.25l-24.75,24.05ZM350,45.94l-14-18.65,2.95-2.55,16.05,21.2h-5Z"/>
      <path class="cls-1" d="M359.75,45.94v-3.7h5.95V14.64h-5.95v-3.7h15.9v3.7h-6v27.6h6v3.7h-15.9Z"/>
      <path class="cls-1" d="M383.95,45.94V10.94h3.6l22.15,30.25-.6.3c-.17-1.07-.3-2.31-.4-3.72-.1-1.42-.17-3.08-.22-4.97-.05-1.9-.08-4.07-.08-6.5v-15.35h3.95v35h-3.65l-22.1-29.85.6-.45c.17,1.8.29,3.38.38,4.75s.16,2.54.23,3.53c.07.98.1,1.83.1,2.55v19.48h-3.95Z"/>
      <path class="cls-1" d="M437.8,46.44c-2.53,0-4.88-.45-7.05-1.35-2.17-.9-4.06-2.16-5.67-3.77-1.62-1.62-2.87-3.52-3.75-5.7-.88-2.18-1.33-4.56-1.33-7.12s.44-4.89,1.33-7.07c.88-2.18,2.12-4.08,3.72-5.7,1.6-1.62,3.48-2.88,5.65-3.77,2.17-.9,4.52-1.35,7.05-1.35,1.8,0,3.54.26,5.23.78,1.68.52,3.21,1.23,4.57,2.15,1.37.92,2.52,1.99,3.45,3.22l-2.6,2.65c-1.5-1.57-3.15-2.78-4.95-3.65-1.8-.87-3.7-1.3-5.7-1.3s-3.78.35-5.45,1.05c-1.67.7-3.12,1.68-4.38,2.95s-2.22,2.76-2.9,4.48c-.68,1.72-1.03,3.57-1.03,5.57s.36,3.81,1.08,5.53,1.71,3.22,2.97,4.5,2.74,2.28,4.43,3c1.68.72,3.49,1.07,5.42,1.07,1.7,0,3.24-.25,4.62-.75,1.38-.5,2.59-1.22,3.62-2.15,1.03-.93,1.83-2.02,2.38-3.27s.83-2.59.83-4.03v-1l.6.55h-12.1v-3.95h15.55c.07.33.11.63.12.9.02.27.03.52.05.75.02.23.03.45.03.65,0,2.5-.39,4.74-1.18,6.72-.78,1.98-1.88,3.67-3.3,5.07-1.42,1.4-3.08,2.48-5,3.23s-4.02,1.12-6.33,1.12Z"/>
    </g>
    <g>
      <path class="cls-1" d="M.54,16.8c.05-1.27.9-2.37,2.11-2.75,6.68-2.06,13.43-4.1,20.24-6.13C31.68,5.32,40.39,2.79,49.03.35c1.46-.41,2.99-.46,4.47-.15,9.1,1.92,18.21,3.84,27.31,5.76.1.02.13.05.18.07,1.56.62,2.57,1.72,5.14,5.2.53.72.78,1.1.85,1.2,1.65,2.46.35,5.82-2.54,6.5-.02,0-.04.01-.07.02-1.72.4-8.42,1.93-17.68,2.63-3.45.26-7.7.44-12.6.33-.91-.02-1.64-.76-1.66-1.66-.01-.77-.04-1.56-.09-2.37-.04-.62-.08-1.23-.14-1.82-.08-.88-.87-1.51-1.74-1.41-1.02.12-2.11.29-3.26.54-1.11.24-2.15.52-3.11.82-1.54.48-2.62,1.85-2.76,3.46-.33,3.83-.9,9.56-.95,14.17-.04,3.32-.37,6.52-.6,6.52-.27,0-.49-4.41-.6-6.53-.1-2.09-.15-4.12-.15-4.42-.01-.65-.02-1.3-.03-1.96-.02-3.5.07-6.83.25-9.97.08-1.4.99-2.61,2.31-3.09,1.37-.49,2.83-.97,4.39-1.42,1.7-.49,3.34-.89,4.89-1.22,1.4-.3,2.76.66,2.96,2.08.16,1.1.27,2.29.31,3.55.03.83.03,1.62,0,2.37-.02.68.55,1.23,1.23,1.18,5.48-.39,11.41-1.06,17.7-2.14,3.31-.57,6.49-1.2,9.51-1.89,1.82-.41,2.73-2.45,1.85-4.1-.06-.11-.12-.23-.19-.34l-.62-1.11c-1.29-2.33-3.58-3.93-6.21-4.36-3.97-.64-8.06-1.23-12.25-1.78-3.98-.51-7.88-.96-11.69-1.34-1.34-.13-2.7-.05-4.02.24-6.51,1.44-13.3,3.1-20.31,5.04-7.52,2.07-14.66,4.28-21.4,6.55-1.64.55-2.79,2.03-2.93,3.76-.29,3.5-.51,7.14-.64,10.93-.17,4.73-.18,9.26-.08,13.57.03,1.43.92,2.71,2.24,3.25,1.57.64,3.13,1.28,4.7,1.92.14.06.27.16.34.31.21.47-.19.94-.66.84l-6.93-1.39C1.59,48.23,0,46.31,0,44.08c-.01-4.78.03-9.65.14-14.61.09-4.29.22-8.51.4-12.66Z"/>
      <path class="cls-1" d="M72.02,20.71c.76,2.11,2.18,5.36,4.82,8.76.98,1.26,1.98,2.34,2.93,3.26s2.05,1.46,3.29,1.69c2.51.47,5.02.94,7.52,1.41,1.51.28,2.81,1.22,3.54,2.57.39.73.75,1.61.99,2.63.27,1.13.32,2.17.28,3.06-.08,1.48-1.06,2.77-2.45,3.27-.5.18-1.04.35-1.63.51-3.89,1.05-6.79.68-6.8.89-.01.23,3.39.83,7.55.7,1-.03,1.92-.1,2.75-.19,1.92-.2,3.43-1.72,3.59-3.64.12-1.37.06-3.03-.45-4.85-.2-.71-.45-1.37-.72-1.97-1.3-2.86-3.98-4.87-7.09-5.36l-4.53-.72c-1.44-.23-2.79-.86-3.88-1.83-.86-.76-1.73-1.58-2.61-2.47-2.8-2.82-4.97-5.57-6.61-7.95l-.49.25Z"/>
      <path class="cls-1" d="M63.44,54.12c-.79-.46-.26-4,1.97-6.16,2.12-2.05,4.87-1.99,5.61-1.97.88.02,3.3.22,5.41,2.12,1.22,1.11,1.88,2.37,2.23,3.36.32.9,1.16,1.52,2.12,1.53,7.04.09,14.07.18,21.11.26.9.01,1.7.58,2.01,1.43h0s-23.73.47-23.73.47c-.92.02-1.79-.44-2.29-1.22-1.61-2.5-3.92-5.14-6.65-5.1-4.03.05-6.69,5.91-7.78,5.27Z"/>
      <path class="cls-1" d="M32.25,53.07c.51-.48-2.46-8.49-8.28-8.29-5.79.2-8.25,8.32-7.68,8.79.49.4,3.34-4.65,7.98-4.75,4.55-.09,7.55,4.64,7.98,4.24Z"/>
    </g>
    <rect class="cls-1" x="100.99" y="53.24" width="356.95" height="1.46"/>
  </g>
</svg>